<svg xmlns="http://www.w3.org/2000/svg" xmlns:xlink="http://www.w3.org/1999/xlink" preserveAspectRatio="xMidYMid" width="60" height="60" viewBox="0 0 60 60">
  <defs>
    <style>
      .cls-1 {
        fill: #000;
        fill-rule: evenodd;
      }
    </style>
  </defs>
  <path d="M42.000,44.000 L4.000,44.000 C1.791,44.000 -0.000,42.209 -0.000,40.000 L3.000,32.000 L7.000,32.000 L4.000,39.000 C4.000,40.105 4.895,41.000 6.000,41.000 L40.000,41.000 C41.105,41.000 42.000,40.105 42.000,39.000 L39.000,32.000 L43.000,32.000 L46.000,40.000 C46.000,42.209 44.209,44.000 42.000,44.000 ZM23.000,38.000 C23.000,38.000 7.000,24.837 7.000,16.000 C7.000,7.163 14.163,0.000 23.000,0.000 C31.837,0.000 39.000,7.163 39.000,16.000 C39.000,24.837 23.000,38.000 23.000,38.000 ZM23.000,4.000 C16.373,4.000 11.000,9.373 11.000,16.000 C11.000,22.627 23.000,33.000 23.000,33.000 C23.000,33.000 35.000,22.627 35.000,16.000 C35.000,9.373 29.627,4.000 23.000,4.000 ZM17.000,17.000 C17.000,13.686 19.686,11.000 23.000,11.000 C26.314,11.000 29.000,13.686 29.000,17.000 C29.000,20.314 26.314,23.000 23.000,23.000 C19.686,23.000 17.000,20.314 17.000,17.000 ZM26.000,17.000 C26.000,15.343 24.657,14.000 23.000,14.000 C21.343,14.000 20.000,15.343 20.000,17.000 C20.000,18.657 21.343,20.000 23.000,20.000 C24.657,20.000 26.000,18.657 26.000,17.000 Z" transform="translate(7 8)" class="cls-1"/>
</svg>
