<svg xmlns="http://www.w3.org/2000/svg" xmlns:xlink="http://www.w3.org/1999/xlink" preserveAspectRatio="xMidYMid" width="60" height="60" viewBox="0 0 60 60">
  <defs>
    <style>
      .cls-1 {
        fill: #000;
        fill-rule: evenodd;
      }
    </style>
  </defs>
  <path d="M39.988,42.071 C39.988,43.176 39.092,44.071 37.988,44.071 C36.883,44.071 35.988,43.176 35.988,42.071 L35.985,42.047 L35.931,42.047 C34.982,34.297 28.504,28.266 20.556,28.015 C20.385,28.021 20.217,28.041 20.044,28.041 C19.871,28.041 19.704,28.021 19.533,28.015 C11.586,28.267 5.109,34.297 4.160,42.047 L4.110,42.047 L4.113,42.071 C4.113,43.176 3.217,44.071 2.113,44.071 C1.008,44.071 0.113,43.176 0.113,42.071 L0.094,41.886 C0.094,41.624 0.148,41.376 0.239,41.147 C1.241,34.143 5.849,28.305 12.138,25.598 C8.444,23.072 6.017,18.828 6.017,14.014 C6.017,6.268 12.297,-0.012 20.044,-0.012 C27.790,-0.012 34.070,6.268 34.070,14.014 C34.070,18.826 31.645,23.068 27.953,25.595 C34.303,28.325 38.938,34.247 39.884,41.338 C39.934,41.513 39.969,41.694 39.969,41.886 L39.988,42.071 ZM30.059,14.018 C30.059,8.485 25.573,3.999 20.040,3.999 C14.507,3.999 10.021,8.485 10.021,14.018 C10.021,19.552 14.507,24.037 20.040,24.037 C25.573,24.037 30.059,19.552 30.059,14.018 Z" transform="translate(9.95 3.94)" class="cls-1"/>
</svg>
